<?xml version="1.0" encoding="utf-8"?>
<!-- Generator: Adobe Illustrator 15.1.0, SVG Export Plug-In . SVG Version: 6.00 Build 0)  -->
<!DOCTYPE svg PUBLIC "-//W3C//DTD SVG 1.1//EN" "http://www.w3.org/Graphics/SVG/1.1/DTD/svg11.dtd" [
	<!ENTITY ns_flows "http://ns.adobe.com/Flows/1.0/">
	<!ENTITY ns_extend "http://ns.adobe.com/Extensibility/1.0/">
	<!ENTITY ns_ai "http://ns.adobe.com/AdobeIllustrator/10.0/">
	<!ENTITY ns_graphs "http://ns.adobe.com/Graphs/1.0/">
	<!ENTITY ns_vars "http://ns.adobe.com/Variables/1.0/">
	<!ENTITY ns_imrep "http://ns.adobe.com/ImageReplacement/1.0/">
	<!ENTITY ns_sfw "http://ns.adobe.com/SaveForWeb/1.0/">
	<!ENTITY ns_custom "http://ns.adobe.com/GenericCustomNamespace/1.0/">
	<!ENTITY ns_adobe_xpath "http://ns.adobe.com/XPath/1.0/">
]>
<svg version="1.1" id="Camada_1" xmlns:x="&ns_extend;" xmlns:i="&ns_ai;" xmlns:graph="&ns_graphs;"
	 xmlns="http://www.w3.org/2000/svg" xmlns:xlink="http://www.w3.org/1999/xlink" xmlns:a="http://ns.adobe.com/AdobeSVGViewerExtensions/3.0/"
	 x="0px" y="0px" width="400px" height="180px" viewBox="0 0 400 180" enable-background="new 0 0 400 180" xml:space="preserve">
<metadata>
	<sfw  xmlns="&ns_sfw;">
		<slices></slices>
		<sliceSourceBounds  height="166.155" width="395.244" y="301.423" x="313.878" bottomLeftOrigin="true"></sliceSourceBounds>
	</sfw>
</metadata>
<g>
	<g>
		<g>
			<path fill="#FFFFFF" d="M216.212,104.141l-4.698,5.58c-2.168-1.881-4.463-2.939-7.285-2.939c-5.166,0-8.813,4.169-8.813,14.16
				c0,9.818,3.584,13.982,8.989,13.982c3.23,0,5.584-1.582,7.938-3.41l4.344,5.641c-2.644,2.701-7.111,5.234-12.75,5.234
				c-11.166,0-18.625-7.527-18.625-21.447c0-13.631,7.873-21.271,18.333-21.271C209.165,99.67,212.863,101.316,216.212,104.141z"/>
			<path fill="#FFFFFF" d="M230.111,99.029c0,2.994-2.293,5.287-5.524,5.287c-3.229,0-5.463-2.293-5.463-5.287
				c0-3,2.231-5.295,5.463-5.295C227.82,93.734,230.111,96.029,230.111,99.029z M229.286,141.393h-9.283v-31.203h9.283V141.393
				L229.286,141.393z"/>
			<path fill="#FFFFFF" d="M263.96,97.791v43.6h-8.231l-0.465-3.646c-1.763,2.588-4.646,4.646-8.875,4.646
				c-7.937,0-11.869-6.582-11.869-16.688c0-9.638,4.879-16.515,12.928-16.515c2.82,0,5.346,1.117,7.229,2.939V96.791L263.96,97.791z
				 M254.676,132.109v-13.519c-1.408-1.647-2.82-2.646-4.818-2.646c-3.346,0-5.699,2.822-5.699,9.814
				c0,7.756,2.113,9.813,5.17,9.813C251.497,135.572,253.204,134.4,254.676,132.109z"/>
			<path fill="#FFFFFF" d="M297.637,136.158l-1.938,6.049c-3.646-0.289-6.057-1.41-7.525-4.457
				c-2.238,3.406-5.695,4.643-9.406,4.643c-6.229,0-10.164-4.055-10.164-9.758c0-6.813,5.168-10.518,14.631-10.518h3.17v-1.35
				c0-3.701-1.469-4.818-5.286-4.818c-2,0-5.054,0.59-8.166,1.646l-2.115-6.109c3.938-1.473,8.228-2.289,11.75-2.289
				c9.05,0,12.929,3.818,12.929,11.045v12.104C295.521,134.75,296.169,135.631,297.637,136.158z M286.413,132.811v-5.582h-2.289
				c-4.229,0-6.285,1.472-6.285,4.584c0,2.465,1.347,3.938,3.646,3.938C283.594,135.75,285.296,134.633,286.413,132.811z"/>
			<path fill="#FFFFFF" d="M330.376,97.791v43.6h-8.228l-0.471-3.646c-1.764,2.588-4.646,4.646-8.873,4.646
				c-7.936,0-11.869-6.582-11.869-16.688c0-9.638,4.877-16.515,12.929-16.515c2.821,0,5.346,1.117,7.229,2.939V96.791
				L330.376,97.791z M321.093,132.109v-13.519c-1.409-1.647-2.819-2.646-4.815-2.646c-3.353,0-5.699,2.822-5.699,9.814
				c0,7.756,2.111,9.813,5.17,9.813C317.923,135.572,319.626,134.4,321.093,132.109z"/>
			<path fill="#FFFFFF" d="M364.057,136.158l-1.943,6.049c-3.645-0.289-6.049-1.41-7.521-4.457c-2.24,3.406-5.705,4.643-9.406,4.643
				c-6.231,0-10.16-4.055-10.16-9.758c0-6.813,5.162-10.518,14.625-10.518h3.175v-1.35c0-3.701-1.474-4.818-5.291-4.818
				c-1.996,0-5.054,0.59-8.168,1.646l-2.113-6.109c3.938-1.473,8.229-2.289,11.752-2.289c9.046,0,12.931,3.818,12.931,11.045v12.104
				C361.941,134.75,362.591,135.631,364.057,136.158z M343.025,104.021l-4.646-2.232c1.47-3.762,4.056-6.936,7.579-6.936
				c3.586,0,4.881,2.645,6.818,2.645c1.291,0,2.119-0.877,3.053-2.582l4.646,2.293c-1.531,3.938-4.174,6.871-7.641,6.871
				c-3.406,0-4.756-2.641-6.697-2.641C344.727,101.434,343.964,102.373,343.025,104.021z M352.833,132.811v-5.582h-2.291
				c-4.229,0-6.284,1.472-6.284,4.584c0,2.465,1.35,3.938,3.646,3.938C350.018,135.75,351.717,134.633,352.833,132.811z"/>
			<path fill="#FFFFFF" d="M397.622,125.822c0,9.988-5.759,16.57-15.274,16.57c-9.461,0-15.275-6.109-15.275-16.627
				c0-9.99,5.754-16.568,15.275-16.568C391.863,109.191,397.622,115.305,397.622,125.822z M376.704,125.762
				c0,6.938,1.879,9.811,5.642,9.811c3.756,0,5.643-2.995,5.643-9.743c0-6.938-1.883-9.822-5.643-9.822
				C378.583,116.004,376.704,119.004,376.704,125.762z"/>
		</g>
		<g>
			<path fill="#FFFFFF" d="M216.055,81.579h16.276l-0.886,6.346h-23.151V47.319h7.759L216.055,81.579L216.055,81.579z"/>
			<path fill="#FFFFFF" d="M264.982,72.352c0,9.813-5.465,16.453-14.631,16.453c-9.164,0-14.627-6.229-14.627-16.453
				c0-9.752,5.465-16.395,14.688-16.395C259.579,55.958,264.982,62.188,264.982,72.352z M243.656,72.352
				c0,7.465,2.287,10.754,6.695,10.754c4.407,0,6.701-3.352,6.701-10.754s-2.294-10.691-6.641-10.691
				C246.005,61.659,243.656,65.012,243.656,72.352z"/>
			<path fill="#FFFFFF" d="M299.202,58.489c-2.351,0.818-5.289,1.057-8.987,1.057c3.76,1.703,5.643,4.113,5.643,7.99
				c0,6.053-4.703,10.457-12.521,10.457c-1.35,0-2.529-0.117-3.699-0.471c-0.764,0.529-1.295,1.35-1.295,2.295
				c0,1.117,0.648,2.174,3.762,2.174h4.76c6.875,0,11.341,3.703,11.341,8.814c0,6.23-5.347,9.934-15.515,9.934
				c-11.043,0-14.16-3.526-14.16-9.752h6.75c0,3.111,1.354,4.459,7.527,4.459c6.055,0,7.814-1.645,7.814-4.112
				c0-2.289-1.824-3.701-5.287-3.701h-4.701c-6.23,0-8.871-2.758-8.871-5.992c0-2.172,1.348-4.35,3.645-5.758
				c-3.817-1.998-5.461-4.76-5.461-8.752c0-6.756,5.347-11.164,12.869-11.164c7.34,0.178,10.746-1.467,14.515-3.467L299.202,58.489z
				 M277.52,67.008c0,3.758,2.057,6.107,5.524,6.107c3.584,0,5.524-2.234,5.524-6.168c0-3.938-1.883-5.879-5.637-5.879
				C279.518,61.071,277.52,63.424,277.52,67.008z"/>
			<path fill="#FFFFFF" d="M312.032,45.674c0,2.527-1.938,4.527-4.753,4.527c-2.764,0-4.704-2-4.704-4.527
				c0-2.582,1.94-4.586,4.704-4.586C310.093,41.092,312.032,43.092,312.032,45.674z M311.092,87.924h-7.521V56.842h7.521V87.924z"/>
			<path fill="#FFFFFF" d="M345.527,65.422V87.93h-7.521V66.602c0-3.877-1.472-4.998-3.823-4.998c-2.705,0-4.699,1.826-6.526,4.705
				V87.93h-7.525V56.842h6.527l0.59,4.113c2.405-3.113,5.521-4.992,9.455-4.992C342.298,55.958,345.527,59.485,345.527,65.422z"/>
		</g>
	</g>
	<g>
		
			<linearGradient id="SVGID_1_" gradientUnits="userSpaceOnUse" x1="-88.7222" y1="201.6543" x2="52.645" y2="201.6543" gradientTransform="matrix(1 0 0 -1 91.1001 267.4004)">
			<stop  offset="0" style="stop-color:#B61F29"/>
			<stop  offset="1" style="stop-color:#EB5E2F"/>
			<a:midPointStop  offset="0" style="stop-color:#B61F29"/>
			<a:midPointStop  offset="0.5" style="stop-color:#B61F29"/>
			<a:midPointStop  offset="1" style="stop-color:#EB5E2F"/>
		</linearGradient>
		<path fill="url(#SVGID_1_)" d="M12.917,124.557c1.562-13.934,5.996-26.986,12.692-38.576l-2.158-8.055
			c-0.811-3.021,0.021-6.262,2.237-8.479l39.234-39.191c1.111-1.107,2.458-1.889,3.924-2.279c0.733-0.195,1.473-0.291,2.24-0.295
			c0.762,0,1.517,0.09,2.277,0.295l31.266,8.374V36.35c2.44-0.18,4.889-0.305,7.376-0.303c11.095,0,21.765,1.844,31.738,5.191
			l0.002,0.001L112.847,10.34c-1.479-1.479-3.278-2.516-5.23-3.035c-0.975-0.266-1.976-0.381-2.994-0.383h-0.029v0.004
			c-1.006,0-2.051,0.109-3.047,0.379L30.165,26.458c-4.043,1.078-7.192,4.234-8.271,8.273L2.782,106.113
			c-1.082,4.041,0.038,8.346,2.997,11.309l7.146,7.148L12.917,124.557z"/>
		
			<linearGradient id="SVGID_2_" gradientUnits="userSpaceOnUse" x1="-37.5913" y1="209.3223" x2="34.4111" y2="137.3198" gradientTransform="matrix(1 0 0 -1 91.1001 267.4004)">
			<stop  offset="0" style="stop-color:#FCEA10"/>
			<stop  offset="0.3946" style="stop-color:#F9C700"/>
			<stop  offset="0.8006" style="stop-color:#F5A200"/>
			<stop  offset="1" style="stop-color:#F39200"/>
			<a:midPointStop  offset="0" style="stop-color:#FCEA10"/>
			<a:midPointStop  offset="0.5" style="stop-color:#FCEA10"/>
			<a:midPointStop  offset="0.3946" style="stop-color:#F9C700"/>
			<a:midPointStop  offset="0.5" style="stop-color:#F9C700"/>
			<a:midPointStop  offset="0.8006" style="stop-color:#F5A200"/>
			<a:midPointStop  offset="0.5" style="stop-color:#F5A200"/>
			<a:midPointStop  offset="1" style="stop-color:#F39200"/>
		</linearGradient>
		<path fill="url(#SVGID_2_)" d="M64.99,172.998c-0.563-0.066-1.122-0.164-1.671-0.311c-1.953-0.521-3.796-1.517-5.274-2.994
			l-45.128-45.137c1.562-13.937,5.997-26.99,12.694-38.581L37.8,131.465c0.813,3.027,3.173,5.393,6.207,6.205l22.358,5.992
			c-1.452,5.779-2.237,11.828-2.237,18.063c0,3.83,0.292,7.592,0.856,11.271C64.986,172.994,64.988,172.996,64.99,172.998z
			 M165.122,62.614l-21.378-21.375c-9.974-3.348-20.644-5.191-31.738-5.191c-2.487-0.002-4.936,0.123-7.376,0.303l22.311,5.975
			c3.03,0.809,5.396,3.17,6.208,6.201l10.61,39.638c6.783,0.527,13.311,1.957,19.454,4.198v0.016l4.951-18.453
			C169.244,69.887,168.084,65.569,165.122,62.614z"/>
		
			<linearGradient id="SVGID_3_" gradientUnits="userSpaceOnUse" x1="4.624" y1="153.0977" x2="47.8708" y2="109.8509" gradientTransform="matrix(1 0 0 -1 91.1001 267.4004)">
			<stop  offset="0" style="stop-color:#DEDC00"/>
			<stop  offset="0.1013" style="stop-color:#C5CF00"/>
			<stop  offset="0.3193" style="stop-color:#92B61F"/>
			<stop  offset="0.5253" style="stop-color:#63A32D"/>
			<stop  offset="0.7135" style="stop-color:#3B9733"/>
			<stop  offset="0.8778" style="stop-color:#109035"/>
			<stop  offset="1" style="stop-color:#008D36"/>
			<a:midPointStop  offset="0" style="stop-color:#DEDC00"/>
			<a:midPointStop  offset="0.5" style="stop-color:#DEDC00"/>
			<a:midPointStop  offset="0.1013" style="stop-color:#C5CF00"/>
			<a:midPointStop  offset="0.5" style="stop-color:#C5CF00"/>
			<a:midPointStop  offset="0.3193" style="stop-color:#92B61F"/>
			<a:midPointStop  offset="0.5" style="stop-color:#92B61F"/>
			<a:midPointStop  offset="0.5253" style="stop-color:#63A32D"/>
			<a:midPointStop  offset="0.5" style="stop-color:#63A32D"/>
			<a:midPointStop  offset="0.7135" style="stop-color:#3B9733"/>
			<a:midPointStop  offset="0.5" style="stop-color:#3B9733"/>
			<a:midPointStop  offset="0.8778" style="stop-color:#109035"/>
			<a:midPointStop  offset="0.5" style="stop-color:#109035"/>
			<a:midPointStop  offset="1" style="stop-color:#008D36"/>
		</linearGradient>
		<path fill="url(#SVGID_3_)" d="M147.489,102.104c0.812,3.029-0.06,6.219-2.284,8.435l-39.189,39.237
			c-1.109,1.113-2.459,1.845-3.922,2.234c-1.463,0.393-3.043,0.41-4.556,0l-31.172-8.35c-1.453,5.779-2.238,11.83-2.238,18.064
			c0,3.83,0.292,7.592,0.856,11.27c1.442,0.172,2.912,0.08,4.368-0.313l71.379-19.109c4.041-1.082,7.188-4.236,8.273-8.271
			l14.208-52.939c-6.146-2.241-12.675-3.67-19.46-4.198L147.489,102.104z"/>
	</g>
</g>
</svg>
