<?xml version="1.0" encoding="utf-8"?>
<!-- Generator: Adobe Illustrator 15.1.0, SVG Export Plug-In . SVG Version: 6.00 Build 0)  -->
<!DOCTYPE svg PUBLIC "-//W3C//DTD SVG 1.1//EN" "http://www.w3.org/Graphics/SVG/1.1/DTD/svg11.dtd" [
	<!ENTITY ns_flows "http://ns.adobe.com/Flows/1.0/">
	<!ENTITY ns_extend "http://ns.adobe.com/Extensibility/1.0/">
	<!ENTITY ns_ai "http://ns.adobe.com/AdobeIllustrator/10.0/">
	<!ENTITY ns_graphs "http://ns.adobe.com/Graphs/1.0/">
	<!ENTITY ns_vars "http://ns.adobe.com/Variables/1.0/">
	<!ENTITY ns_imrep "http://ns.adobe.com/ImageReplacement/1.0/">
	<!ENTITY ns_sfw "http://ns.adobe.com/SaveForWeb/1.0/">
	<!ENTITY ns_custom "http://ns.adobe.com/GenericCustomNamespace/1.0/">
	<!ENTITY ns_adobe_xpath "http://ns.adobe.com/XPath/1.0/">
]>
<svg version="1.1" id="Camada_1" xmlns:x="&ns_extend;" xmlns:i="&ns_ai;" xmlns:graph="&ns_graphs;"
	 xmlns="http://www.w3.org/2000/svg" xmlns:xlink="http://www.w3.org/1999/xlink" xmlns:a="http://ns.adobe.com/AdobeSVGViewerExtensions/3.0/"
	 x="0px" y="0px" width="140px" height="22px" viewBox="0 0 140 22" enable-background="new 0 0 140 22" xml:space="preserve">
<metadata>
	<sfw  xmlns="&ns_sfw;">
		<slices></slices>
		<sliceSourceBounds  height="20" width="125.005" y="-72.5" x="42.497" bottomLeftOrigin="true"></sliceSourceBounds>
	</sfw>
</metadata>
<g>
	<path fill-rule="evenodd" clip-rule="evenodd" fill="#1D1D1B" d="M92.498,3.762l-0.909,2.569h2.626c0.852,0,2.059-0.27,2.328-1.207
		c0.312-1.107-0.524-1.363-1.42-1.363H92.498z M84.679,14.023l4.357-12.815h7.691c1.078,0.014,3.192-0.127,4.059,0.653
		c0.212,0.213,0.427,0.654,0.469,1.037c0.027,0.397-0.072,1.078-0.242,1.56c-0.227,0.795-0.809,1.505-1.49,2.016
		c-0.709,0.51-1.589,0.866-2.525,0.908c0.95,0,1.49,0.526,1.802,0.852c0.27,0.312,0.427,0.866,0.354,1.632
		c-0.112,1.376-0.085,2.781-0.142,4.158h-4.484c0-0.652,0.127-1.944,0.171-2.456c0.198-2.014,0.227-2.682-1.988-2.682h-1.972
		l-1.788,5.138H84.679z"/>
	<g>
		<g>
			<defs>
				<polygon id="SVGID_1_" points="9.714,21 30.924,21 15.527,4.052 				"/>
			</defs>
			<clipPath id="SVGID_2_">
				<use xlink:href="#SVGID_1_"  overflow="visible"/>
			</clipPath>
			
				<linearGradient id="SVGID_3_" gradientUnits="userSpaceOnUse" x1="-342.21" y1="-290.583" x2="-341.9893" y2="-290.583" gradientTransform="matrix(6.7244 -76.8598 -72.5262 0 -18754.1582 -26281.2051)">
				<stop  offset="0" style="stop-color:#004F9F"/>
				<stop  offset="1" style="stop-color:#A1DAF8"/>
				<a:midPointStop  offset="0" style="stop-color:#004F9F"/>
				<a:midPointStop  offset="0.5" style="stop-color:#004F9F"/>
				<a:midPointStop  offset="1" style="stop-color:#A1DAF8"/>
			</linearGradient>
			<polygon clip-path="url(#SVGID_2_)" fill="url(#SVGID_3_)" points="8.232,21 9.714,4.052 32.406,4.052 30.924,21 			"/>
		</g>
		<path fill-rule="evenodd" clip-rule="evenodd" fill="#1D1D1B" d="M43.131,7.712c-0.47,1.278-0.385,2.384-0.114,2.924
			c0.269,0.554,1.149,1.022,2.413,1.022c1.221,0,2.384-0.426,3.136-0.952c0.781-0.539,1.633-1.702,1.973-2.866
			c0.397-1.291,0.426-2.569,0.156-3.166c-0.297-0.624-1.235-1.121-2.484-1.121c-1.12,0-2.199,0.398-3.05,1.078
			c-0.852,0.682-1.575,1.817-2.059,3.137L43.131,7.712z M44.294,14.298c-2.526,0-4.385-0.753-5.166-1.731
			c-0.809-0.994-0.865-2.938-0.241-4.939c0.639-2.043,2.059-3.817,3.817-4.924C44.464,1.597,46.72,1,49.274,1
			c2.541,0,4.514,0.681,5.309,1.703c0.837,1.078,0.922,2.995,0.283,5.009c-0.652,2.044-2.157,3.918-3.774,4.854
			c-1.66,0.95-4.059,1.717-6.713,1.717L44.294,14.298z M67.369,5.484c0.1-0.596-0.155-1.164-0.355-1.376
			c-0.212-0.227-0.821-0.554-1.518-0.554c-1.178,0-2.313,0.497-3.051,1.078c-0.781,0.639-1.703,1.93-2.029,3.08
			c-0.342,1.178-0.397,2.399-0.128,2.924c0.298,0.554,1.179,1.022,2.298,1.022c0.853,0,1.79-0.313,2.3-0.583
			c0.483-0.27,1.192-1.008,1.589-1.774h4.245c-0.768,1.717-1.946,3.009-3.436,3.761c-1.49,0.753-3.505,1.178-5.975,1.178
			c-2.342,0-4.102-0.709-4.896-1.674c-0.794-0.951-0.936-2.754-0.325-4.698c0.652-2.058,2.057-3.874,3.804-5.038
			C61.636,1.667,63.821,1,66.333,1c2.144,0,3.732,0.454,4.571,1.135c0.836,0.681,1.148,1.902,0.736,3.349H67.369z M70.72,14.014
			l4.343-12.801h11.664L85.762,3.98h-7.237l-0.696,1.93h6.628l-0.979,2.753h-6.643l-0.879,2.569h7.479l-0.98,2.782H70.72z
			 M113.365,5.271c0.027-1.348-1.08-1.717-2.229-1.717c-1.234,0-2.469,0.497-3.321,1.121c-0.866,0.653-1.802,1.917-2.143,3.094
			c-0.341,1.164-0.326,2.327,0.086,2.867c0.425,0.54,1.518,1.022,2.965,1.022c1.022,0,2.001-0.213,2.979-0.469l0.754-2.072h-3.194
			l0.811-2.37h7.022l-2.326,6.642c-1.348,0.256-2.71,0.539-3.831,0.625c-1.122,0.085-2.328,0.227-3.421,0.227
			c-2.797,0-4.867-0.625-5.79-1.547c-0.923-0.936-1.022-2.795-0.369-4.825c0.666-2.072,2.241-3.987,3.959-5.038
			C107.105,1.751,109.589,1,112.357,1c2.113,0,3.845,0.468,4.584,1.078c0.751,0.625,1.105,1.817,0.694,3.193H113.365z M121.81,9.742
			l-0.116,0.412c-0.382,1.405,1.136,1.504,2.115,1.504c0.611,0,2.356-0.313,2.655-1.093c0.184-0.597-0.326-0.894-0.838-1.05
			c-0.753-0.171-1.503-0.342-2.087-0.483c-3.149-0.667-3.575-0.993-3.958-1.675c-0.483-0.822-0.326-1.745-0.114-2.469
			c0.354-1.206,1.476-2.342,2.696-2.881C123.327,1.482,125.257,1,127.386,1c2.087,0,3.718,0.412,4.37,0.909
			c0.695,0.525,0.952,1.788,0.568,2.824l-0.043,0.113h-4.044l0.028-0.042c0.227-0.327-0.014-0.724-0.326-0.908
			c-0.483-0.241-0.823-0.326-1.747-0.341c-0.651,0-2.17,0.185-2.298,0.922c-0.07,0.398,0.384,0.979,2.271,1.334
			c1.377,0.256,2.199,0.511,3.137,0.851c1.646,0.597,1.986,1.973,1.547,3.492c-0.341,1.22-1.59,2.469-2.866,2.995
			c-1.378,0.566-3.42,1.092-5.678,1.092c-2.214,0-3.858-0.51-4.47-1.035c-0.64-0.525-0.767-1.717-0.354-3.25l0.057-0.213H121.81z"/>
		<path fill-rule="evenodd" clip-rule="evenodd" fill="#1D1D1B" d="M30.182,3.762l-0.908,2.569h2.626
			c0.851,0,2.058-0.255,2.327-1.207c0.327-1.107-0.511-1.363-1.419-1.363H30.182z M26.294,15.002l-3.122-3.448L26.72,1.208h7.691
			c1.078,0.014,3.193-0.127,4.059,0.653c0.215,0.213,0.427,0.653,0.47,1.037c0.027,0.396-0.072,1.078-0.242,1.56
			c-0.228,0.794-0.809,1.504-1.49,2.016c-0.709,0.51-1.589,0.865-2.526,0.908c0.951,0,1.49,0.526,1.803,0.852
			c0.27,0.312,0.427,0.866,0.354,1.632c-0.113,1.377-0.085,2.781-0.142,4.158h-4.485c0-0.652,0.129-1.944,0.17-2.456
			c0.2-2.014,0.229-2.682-1.985-2.682h-1.974L26.294,15.002z"/>
		<path fill-rule="evenodd" clip-rule="evenodd" fill="#1D1D1B" d="M7.497,14.014l4.399-12.801h8.345c1.718,0,2.781,0.27,3.42,0.923
			c0.666,0.681,0.751,1.746,0.227,2.98c-0.581,1.674-2.44,2.98-3.364,3.037h-0.396l-4.781-5.279l-3.847,11.14H7.497z"/>
	</g>
</g>
</svg>
